<?xml version="1.0" encoding="UTF-8" standalone="no"?><!DOCTYPE svg PUBLIC "-//W3C//DTD SVG 1.1//EN" "http://www.w3.org/Graphics/SVG/1.1/DTD/svg11.dtd"><svg width="100%" height="100%" viewBox="0 0 100 46" version="1.1" xmlns="http://www.w3.org/2000/svg" xmlns:xlink="http://www.w3.org/1999/xlink" xml:space="preserve" xmlns:serif="http://www.serif.com/" style="fill-rule:evenodd;clip-rule:evenodd;stroke-linejoin:round;stroke-miterlimit:2;"><path d="M80.802,10.219l-2.729,4.028l1.116,0.276l-5.586,11.561l2.21,-9.214l-2.122,-0.082l3.024,-8.453l4.087,1.884Z" style="fill:#fff855;"/><g><path d="M10.762,18.464l17.11,0l-2.313,4.017l-11.307,0l-1.88,3.265l7.244,0l-2.173,3.774l-7.243,0l-4.398,7.639l-5.802,0l10.762,-18.695Z" style="fill:#fff;fill-rule:nonzero;"/><path d="M15.668,37.159l10.762,-18.695l9.628,0c1.785,0 3.062,0.153 3.829,0.46c0.768,0.306 1.202,0.873 1.303,1.702c0.101,0.829 -0.191,1.838 -0.877,3.029c-0.597,1.037 -1.333,1.931 -2.208,2.684c-0.875,0.752 -1.834,1.362 -2.877,1.83c-0.664,0.297 -1.482,0.544 -2.453,0.739c0.556,0.23 0.926,0.459 1.108,0.689c0.124,0.153 0.244,0.48 0.359,0.982c0.115,0.501 0.163,0.888 0.142,1.16l-0.327,5.42l-6.529,0l0.202,-5.713c0.035,-0.74 -0.037,-1.22 -0.216,-1.441c-0.25,-0.289 -0.638,-0.434 -1.166,-0.434l-0.51,0l-4.368,7.588l-5.802,0Zm12.204,-11.12l2.436,0c0.263,0 0.822,-0.085 1.677,-0.255c0.426,-0.076 0.851,-0.272 1.275,-0.586c0.423,-0.315 0.752,-0.676 0.987,-1.084c0.347,-0.604 0.423,-1.067 0.226,-1.39c-0.196,-0.323 -0.822,-0.485 -1.876,-0.485l-2.537,0l-2.188,3.8Z" style="fill:#fff;fill-rule:nonzero;"/><path d="M44.853,18.464l15.481,0l-2.298,3.992l-9.691,0l-1.711,2.971l8.99,0l-2.195,3.813l-8.99,0l-2.121,3.685l9.972,0l-2.438,4.234l-15.761,0l10.762,-18.695Z" style="fill:#fff;fill-rule:nonzero;"/><path d="M64.441,34.073l-6.58,0l-2.682,3.086l-5.904,0l17.788,-18.695l6.3,0l-3.736,18.695l-6.045,0l0.859,-3.086Zm1.115,-4.042l1.803,-6.721l-5.921,6.721l4.118,0Z" style="fill:#fff;fill-rule:nonzero;"/><path d="M80.461,18.464l5.777,0l-4.067,7.065l10.124,-7.065l7.677,0l-10.869,7.052l0.413,11.643l-7.116,0l0.487,-7.69l-4.783,3.125l-2.628,4.565l-5.777,0l10.762,-18.695Z" style="fill:#fff;fill-rule:nonzero;"/><path d="M67.087,18.464l2.612,-2.566l-1.522,2.566l-1.09,0Z" style="fill:#fff;"/><path d="M80.982,19.073l1.492,-4.063l-1.962,3.454l0.47,0.609Z" style="fill:#fff;"/></g><path d="M31.811,38.922l5.039,0l0,1.417l-2.992,0l0,1.152l2.555,0l0,1.332l-2.555,0l0,2.694l-2.047,0l0,-6.595Z" style="fill:#fff;fill-rule:nonzero;"/><rect x="38.028" y="38.922" width="2.042" height="6.595" style="fill:#fff;fill-rule:nonzero;"/><path d="M44.848,43.129l0,-1.373l3.149,0l0,2.812c-0.602,0.411 -1.135,0.691 -1.599,0.839c-0.463,0.149 -1.013,0.223 -1.649,0.223c-0.782,0 -1.42,-0.134 -1.914,-0.401c-0.493,-0.266 -0.876,-0.664 -1.147,-1.192c-0.271,-0.528 -0.407,-1.133 -0.407,-1.817c0,-0.72 0.148,-1.346 0.445,-1.878c0.297,-0.533 0.732,-0.937 1.305,-1.213c0.447,-0.213 1.048,-0.319 1.804,-0.319c0.729,0 1.274,0.066 1.635,0.198c0.362,0.132 0.661,0.336 0.9,0.614c0.238,0.277 0.418,0.629 0.538,1.055l-1.966,0.351c-0.081,-0.249 -0.219,-0.44 -0.412,-0.572c-0.194,-0.132 -0.44,-0.198 -0.74,-0.198c-0.447,0 -0.803,0.156 -1.069,0.466c-0.265,0.31 -0.398,0.802 -0.398,1.473c0,0.714 0.135,1.224 0.403,1.53c0.268,0.306 0.643,0.459 1.122,0.459c0.228,0 0.446,-0.033 0.653,-0.099c0.207,-0.066 0.444,-0.179 0.71,-0.338l0,-0.62l-1.363,0Z" style="fill:#fff;fill-rule:nonzero;"/><path d="M49.217,38.922l2.038,0l0,2.308l2.226,0l0,-2.308l2.047,0l0,6.595l-2.047,0l0,-2.667l-2.226,0l0,2.667l-2.038,0l0,-6.595Z" style="fill:#fff;fill-rule:nonzero;"/><path d="M56.419,38.922l6.195,0l0,1.629l-2.079,0l0,4.966l-2.037,0l0,-4.966l-2.079,0l0,-1.629Z" style="fill:#fff;fill-rule:nonzero;"/></svg>