<?xml version="1.0" encoding="UTF-8" standalone="no"?><!DOCTYPE svg PUBLIC "-//W3C//DTD SVG 1.1//EN" "http://www.w3.org/Graphics/SVG/1.1/DTD/svg11.dtd"><svg width="100%" height="100%" viewBox="0 0 232 260" version="1.1"   xml:space="preserve"  style="fill-rule:evenodd;clip-rule:evenodd;stroke-linejoin:round;stroke-miterlimit:2;"><g><path d="M229.733,54.221l-67.14,46.779l15.853,11.061l-157.409,147.825l90.254,-131.33l-32.816,-14.082l98.461,-114.474l52.797,54.221Z" style="fill:#fff30f;"/><path d="M158.282,83.094c0.822,-0.328 1.657,-0.646 2.502,-0.953c9.067,-3.29 20.153,-4.935 33.257,-4.935c16.081,0 26.94,2.99 32.578,8.97c5.638,5.98 6.201,15.493 1.688,28.54l-37.658,2.146c1.682,-5.665 1.568,-9.785 -0.344,-12.36c-1.912,-2.575 -5.615,-3.863 -11.108,-3.863c-4.521,0 -8.375,0.959 -11.563,2.876c-3.187,1.917 -5.424,4.249 -6.712,6.995c-0.938,2.003 -0.839,3.806 0.299,5.408c1.053,1.66 4.678,3.205 10.874,4.635c15.28,3.663 25.718,7.368 31.314,11.116c5.597,3.748 8.769,8.398 9.515,13.949c0.746,5.55 -0.49,11.759 -3.708,18.626c-3.781,8.069 -9.5,15.508 -17.155,22.318c-7.655,6.81 -16.312,11.974 -25.973,15.493c-9.661,3.52 -20.586,5.279 -32.775,5.279c-21.402,0 -34.292,-4.12 -38.67,-12.36c-4.379,-8.24 -4.135,-18.713 0.732,-31.416l38.082,-2.318c-2.015,6.009 -2.53,10.587 -1.544,13.734c1.619,5.093 6.148,7.639 13.587,7.639c5.551,0 10.438,-1.302 14.663,-3.905c4.224,-2.604 7.141,-5.623 8.75,-9.056c1.529,-3.262 1.466,-6.18 -0.188,-8.755c-1.655,-2.575 -7.153,-5.008 -16.495,-7.297c-15.256,-3.834 -25.029,-8.927 -29.32,-15.278c-1.908,-2.788 -2.953,-5.912 -3.136,-9.371l-64.019,76.237l-50.136,0l11.42,-125.836l40.687,0l-14.114,90.557l70.337,-90.557l47.475,0l-3.142,3.742Z" style="fill-rule:nonzero;"/><path d="M152.663,75.355c0.823,-0.328 1.657,-0.646 2.502,-0.952c9.067,-3.291 20.153,-4.936 33.258,-4.936c16.08,0 26.939,2.99 32.577,8.97c5.638,5.98 6.201,15.493 1.689,28.541l-37.659,2.146c1.683,-5.666 1.568,-9.786 -0.344,-12.361c-1.912,-2.575 -5.615,-3.863 -11.108,-3.863c-4.521,0 -8.375,0.959 -11.562,2.876c-3.188,1.917 -5.425,4.249 -6.712,6.996c-0.939,2.003 -0.84,3.805 0.298,5.407c1.053,1.66 4.678,3.205 10.875,4.636c15.279,3.662 25.717,7.367 31.314,11.115c5.596,3.749 8.768,8.398 9.514,13.949c0.746,5.551 -0.49,11.76 -3.708,18.627c-3.781,8.068 -9.499,15.507 -17.154,22.317c-7.655,6.81 -16.313,11.974 -25.974,15.494c-9.661,3.519 -20.586,5.279 -32.774,5.279c-21.402,0 -34.293,-4.121 -38.671,-12.361c-4.378,-8.24 -4.134,-18.712 0.732,-31.416l38.082,-2.318c-2.015,6.009 -2.53,10.587 -1.544,13.734c1.619,5.093 6.148,7.64 13.587,7.64c5.551,0 10.439,-1.302 14.663,-3.906c4.225,-2.604 7.142,-5.622 8.751,-9.056c1.528,-3.262 1.465,-6.18 -0.189,-8.755c-1.654,-2.575 -7.153,-5.007 -16.495,-7.296c-15.256,-3.834 -25.029,-8.927 -29.32,-15.279c-1.908,-2.788 -2.953,-5.911 -3.135,-9.371l-64.02,76.238l-50.136,0l11.421,-125.837l40.686,0l-14.114,90.558l70.337,-90.558l47.475,0l-3.142,3.742Z" style="fill:#e21d1d;fill-rule:nonzero;"/></g></svg>