<?xml version="1.0" encoding="UTF-8" standalone="no"?>
<!DOCTYPE svg PUBLIC "-//W3C//DTD SVG 1.1//EN" "http://www.w3.org/Graphics/SVG/1.1/DTD/svg11.dtd">
<svg width="100%" height="100%" viewBox="0 0 100 46" version="1.1" xmlns="http://www.w3.org/2000/svg"  xml:space="preserve"  style="fill-rule:evenodd;clip-rule:evenodd;stroke-linejoin:round;stroke-miterlimit:2;">
    <path d="M80.802,10.219L78.073,14.247L79.189,14.523L73.603,26.084L75.813,16.87L73.691,16.788L76.715,8.335L80.802,10.219Z" style="fill:rgb(255,248,85);"/>
    <g>
        <path d="M10.762,18.464L27.872,18.464L25.559,22.481L14.252,22.481L12.372,25.746L19.616,25.746L17.443,29.52L10.2,29.52L5.802,37.159L0,37.159L10.762,18.464Z" style="fill:white;fill-rule:nonzero;"/>
        <path d="M15.668,37.159L26.43,18.464L36.058,18.464C37.843,18.464 39.12,18.617 39.887,18.924C40.655,19.23 41.089,19.797 41.19,20.626C41.291,21.455 40.999,22.464 40.313,23.655C39.716,24.692 38.98,25.586 38.105,26.339C37.23,27.091 36.271,27.701 35.228,28.169C34.564,28.466 33.746,28.713 32.775,28.908C33.331,29.138 33.701,29.367 33.883,29.597C34.007,29.75 34.127,30.077 34.242,30.579C34.357,31.08 34.405,31.467 34.384,31.739L34.057,37.159L27.528,37.159L27.73,31.446C27.765,30.706 27.693,30.226 27.514,30.005C27.264,29.716 26.876,29.571 26.348,29.571L25.838,29.571L21.47,37.159L15.668,37.159ZM27.872,26.039L30.308,26.039C30.571,26.039 31.13,25.954 31.985,25.784C32.411,25.708 32.836,25.512 33.26,25.198C33.683,24.883 34.012,24.522 34.247,24.114C34.594,23.51 34.67,23.047 34.473,22.724C34.277,22.401 33.651,22.239 32.597,22.239L30.06,22.239L27.872,26.039Z" style="fill:white;fill-rule:nonzero;"/>
        <path d="M44.853,18.464L60.334,18.464L58.036,22.456L48.345,22.456L46.634,25.427L55.624,25.427L53.429,29.24L44.439,29.24L42.318,32.925L52.29,32.925L49.852,37.159L34.091,37.159L44.853,18.464Z" style="fill:white;fill-rule:nonzero;"/>
        <path d="M64.441,34.073L57.861,34.073L55.179,37.159L49.275,37.159L67.063,18.464L73.363,18.464L69.627,37.159L63.582,37.159L64.441,34.073ZM65.556,30.031L67.359,23.31L61.438,30.031L65.556,30.031Z" style="fill:white;fill-rule:nonzero;"/>
        <path d="M80.461,18.464L86.238,18.464L82.171,25.529L92.295,18.464L99.972,18.464L89.103,25.516L89.516,37.159L82.4,37.159L82.887,29.469L78.104,32.594L75.476,37.159L69.699,37.159L80.461,18.464Z" style="fill:white;fill-rule:nonzero;"/>
        <path d="M67.087,18.464L69.699,15.898L68.177,18.464L67.087,18.464Z" style="fill:white;"/>
        <path d="M80.982,19.073L82.474,15.01L80.512,18.464L80.982,19.073Z" style="fill:white;"/>
    </g>
    <path d="M31.811,38.922L36.85,38.922L36.85,40.339L33.858,40.339L33.858,41.491L36.413,41.491L36.413,42.823L33.858,42.823L33.858,45.517L31.811,45.517L31.811,38.922Z" style="fill:white;fill-rule:nonzero;"/>
    <rect x="38.028" y="38.922" width="2.042" height="6.595" style="fill:white;"/>
    <path d="M44.848,43.129L44.848,41.756L47.997,41.756L47.997,44.568C47.395,44.979 46.862,45.259 46.398,45.407C45.935,45.556 45.385,45.63 44.749,45.63C43.967,45.63 43.329,45.496 42.835,45.229C42.342,44.963 41.959,44.565 41.688,44.037C41.417,43.509 41.281,42.904 41.281,42.22C41.281,41.5 41.429,40.874 41.726,40.342C42.023,39.809 42.458,39.405 43.031,39.129C43.478,38.916 44.079,38.81 44.835,38.81C45.564,38.81 46.109,38.876 46.47,39.008C46.832,39.14 47.131,39.344 47.37,39.622C47.608,39.899 47.788,40.251 47.908,40.677L45.942,41.028C45.861,40.779 45.723,40.588 45.53,40.456C45.336,40.324 45.09,40.258 44.79,40.258C44.343,40.258 43.987,40.414 43.721,40.724C43.456,41.034 43.323,41.526 43.323,42.197C43.323,42.911 43.458,43.421 43.726,43.727C43.994,44.033 44.369,44.186 44.848,44.186C45.076,44.186 45.294,44.153 45.501,44.087C45.708,44.021 45.945,43.908 46.211,43.749L46.211,43.129L44.848,43.129Z" style="fill:white;fill-rule:nonzero;"/>
    <path d="M49.217,38.922L51.255,38.922L51.255,41.23L53.481,41.23L53.481,38.922L55.528,38.922L55.528,45.517L53.481,45.517L53.481,42.85L51.255,42.85L51.255,45.517L49.217,45.517L49.217,38.922Z" style="fill:white;fill-rule:nonzero;"/>
    <path d="M56.419,38.922L62.614,38.922L62.614,40.551L60.535,40.551L60.535,45.517L58.498,45.517L58.498,40.551L56.419,40.551L56.419,38.922Z" style="fill:white;fill-rule:nonzero;"/>
</svg>
