<?xml version="1.0" encoding="UTF-8" standalone="no"?><!DOCTYPE svg ><svg width="50%" height="50%" viewBox="0 0 1303 1303" version="1.1"  xml:space="preserve" style="fill-rule:evenodd;clip-rule:evenodd;stroke-linejoin:round;stroke-miterlimit:2;"><path d="M1231.07,0l-1159.15,0c-39.725,0 -71.912,32.192 -71.912,71.912l0,1159.15c0,39.715 32.192,71.912 71.912,71.912l624.046,0l0,-504.58l-169.8,0l0,-196.647l169.8,0l0,-145.019c0,-168.298 102.791,-259.938 252.922,-259.938c71.912,0 133.723,5.356 151.733,7.748l0,175.879l-104.124,0.049c-81.651,0 -97.459,38.797 -97.459,95.731l0,125.55l194.728,0l-25.352,196.647l-169.371,0l0,504.58l332.035,0c39.715,0 71.911,-32.202 71.911,-71.912l0,-1159.15c-0.004,-39.725 -32.201,-71.912 -71.916,-71.912Z" style="fill:#fff;fill-rule:nonzero;"/></svg>