<?xml version="1.0" encoding="UTF-8" standalone="no"?><!DOCTYPE svg PUBLIC "-//W3C//DTD SVG 1.1//EN" "http://www.w3.org/Graphics/SVG/1.1/DTD/svg11.dtd"><svg width="100%" height="100%" viewBox="0 0 917 854" version="1.1" style="fill-rule:evenodd;clip-rule:evenodd;stroke-linejoin:round;stroke-miterlimit:2;"><rect id="Artboard1" x="0" y="0" width="916.436" height="854" style="fill:none;"/><g><g><ellipse cx="461.229" cy="415.694" rx="338.61" ry="323.453" style="fill:#fff02b;"/><path d="M441.999,32.77c-1.4,0.2 -7,0.9 -12.5,1.5c-26.4,2.8 -33,3.7 -47.5,6.5c-58.8,11.5 -113.5,36 -162,72.7c-38,28.8 -74.4,69.2 -98.2,108.7c-8.2,13.6 -18,32.2 -22.2,42c-1.1,2.5 -3.2,7.3 -4.8,10.8c-1.5,3.4 -2.8,6.8 -2.8,7.6c0,0.7 -0.3,1.6 -0.7,1.9c-3,3 -16.6,49.6 -19.8,67.7c-2.3,13.3 -3.4,20.8 -4.4,30c-0.6,5.8 -1.5,14.9 -2.1,20.2c-1.3,12.4 -1.3,37.2 0,49.6c0.6,5.3 1.5,14.4 2.1,20.2c1.3,12.7 3.1,23.3 6,36.6c1.1,5.4 2.3,11 2.6,12.4c2.1,10.2 13.8,46.9 15.6,48.7c0.4,0.3 0.7,1.2 0.7,1.9c0,0.8 1.3,4.2 2.8,7.6c1.6,3.5 3.7,8.3 4.8,10.8c4.4,10.2 16.8,33.7 21.6,40.7c1.5,2.3 2.8,4.4 2.8,4.7c0,1.7 16.3,24.4 28.4,39.6c14.1,17.6 40,43.4 60.1,59.9c7.8,6.4 30.8,22.5 38.5,27c1.4,0.8 5.2,3.1 8.5,5.1c7.4,4.6 26.8,14.6 35.5,18.4c3.6,1.6 8.3,3.7 10.6,4.7c19.1,8.5 56.2,19.7 77.4,23.4c15.5,2.7 20.8,3.5 30,4.5c5.8,0.6 14.8,1.6 20,2.3c12.2,1.4 37.8,1.4 50,0c5.2,-0.7 14.2,-1.7 20,-2.3c9.2,-1 14.5,-1.8 30,-4.5c16.6,-2.9 52.4,-13.1 66.5,-19c24.4,-10.2 32.7,-14.1 47.5,-22.3c19.1,-10.6 28.5,-16.6 45.5,-29.3c37.4,-27.7 67.4,-59.5 94.4,-100.1c5,-7.5 9.1,-13.8 9.1,-14.1c0,-0.3 1.8,-3.5 4,-7.1c11.9,-19.5 30,-62.3 36,-85.1c7.6,-28.3 10.5,-43.7 12.9,-66.5c0.7,-5.8 1.7,-14.8 2.3,-20c1.6,-12.2 1.6,-34 0.1,-45.5c-0.7,-5 -1.7,-14.2 -2.4,-20.5c-1,-10.1 -1.8,-15.8 -4.4,-31c-1.1,-6.3 -6.1,-27.7 -7.5,-32c-0.4,-1.4 -1.8,-5.9 -3,-10c-13.7,-45.8 -38.4,-92.2 -70.4,-132c-15.1,-18.8 -39.3,-42.8 -60.1,-59.9c-27,-22 -65,-44.1 -100.5,-58.3c-7.5,-3 -28.8,-10.3 -34.5,-11.8c-29.9,-8 -44.2,-10.8 -65,-13c-6,-0.6 -13.9,-1.6 -17.5,-2.2c-6.7,-1 -39.5,-2 -44,-1.2Zm-183.7,214.4c0.4,0 0.6,6.2 0.5,13.7l-0.3,13.8l-24.9,0.2c-13.6,0.1 -25,0.4 -25.3,0.6c-0.5,0.5 1,12.8 3.2,26.2c1.3,7.5 4.9,23.2 8.5,36c6.6,24.1 22.5,58 34.9,74.5l4.1,5.4l0,19.8c0,11.2 -0.4,19.8 -0.9,19.8c-1.4,0 -11.4,-10.2 -19.9,-20.4c-2.9,-3.4 -15.2,-21.8 -18.2,-27.1c-10.4,-18.3 -20.1,-41.5 -26.8,-64c-8.9,-29.7 -13.2,-56.4 -13.2,-82.6c0,-8.6 0.2,-15.8 0.4,-16c0.3,-0.3 59.4,-0.2 77.9,0.1Zm384.8,0.5c1.7,1.1 0.6,28.8 -2.2,55c-5.8,55.4 -24.4,120.4 -49.5,172.4c-18.9,39.2 -39.4,69.1 -65.5,95.4l-11.6,11.7l-54.6,0l-54.5,0l-9.4,-9.3c-44,-43.2 -76.8,-103 -99.9,-182.2c-4.3,-14.9 -9.9,-38.1 -12,-50.3c-0.5,-2.8 -1.4,-7.8 -1.9,-11c-3.4,-19.1 -6,-47.6 -6,-66.3c0,-8.6 0.2,-15.8 0.4,-16c0.7,-0.6 365.6,0 366.7,0.6Zm92.7,12.2c0.5,19.2 -1.8,39.2 -7.8,66.3c-8.6,39.2 -29.2,84.2 -50.8,111c-6.8,8.4 -18.3,20.1 -19.4,19.8c-0.6,-0.2 -0.9,-7.7 -0.8,-19.8l0.1,-19.5l2.7,-3.8c21.9,-30.8 38.5,-73.4 45.1,-116.2c1.7,-10.9 3,-21.9 2.7,-22.3c-0.2,-0.1 -11.6,-0.4 -25.2,-0.5l-24.9,-0.2l-0.3,-13.4c-0.1,-7.6 0.1,-13.7 0.7,-14c0.5,-0.3 18.2,-0.5 39.3,-0.4l38.3,0.2l0.3,12.8Zm-220.2,345.2c0.7,13 5.4,23 15,32.1c7.5,6.9 32.9,42.8 32.9,42.8c0,19.5 -0.3,28.7 -1.1,29.3c-0.7,0.5 -42.3,0.8 -104,0.7l-102.9,-0.3l-0.3,-29c0,0 26.1,-36.8 33.7,-44.3c8.9,-8.9 13.2,-18.4 13.9,-30.4l0.5,-8.8l56,0.2l56,0.3l0.3,7.4Z" style="fill:#d00000;fill-rule:nonzero;"/><path d="M456.899,327.07c-2.6,2 -2.7,2.1 -9.4,23.3c-2.6,8.1 -5.2,15.2 -5.9,15.7c-0.7,0.6 -9.7,1.2 -21.6,1.3c-20.3,0.3 -20.5,0.3 -21.6,2.6c-1.9,3.9 -0.5,6.1 8.4,12.5c20.1,14.6 24.3,17.9 23.9,19c-0.2,0.7 -3,9.2 -6.2,18.9c-6.1,19 -6.4,22 -2,24c3,1.4 4.2,0.8 14,-6.4c3.9,-2.9 9.7,-7.1 13,-9.5c3.3,-2.4 6.8,-5.1 7.8,-5.9c1.1,-0.9 2.4,-1.3 3,-1.1c1.1,0.4 9.5,6.5 17.7,12.7c7,5.3 15.9,11 17.3,11c1.8,0 5.7,-3.7 5.7,-5.5c0,-0.7 -2.7,-9.6 -6,-19.7c-3.3,-10 -6,-18.7 -6,-19.3c0.1,-0.5 2.6,-2.8 5.7,-5c3.1,-2.2 7.5,-5.4 9.7,-7c2.3,-1.7 7.1,-5.2 10.9,-7.8c5.7,-4.1 6.7,-5.2 6.7,-7.8c0,-5.7 -0.9,-5.9 -23.3,-5.9c-20.1,0 -20.4,0 -21.5,-2.3c-0.6,-1.2 -3.4,-9.6 -6.3,-18.7c-3.7,-11.7 -5.9,-17.1 -7.6,-18.8c-2.9,-2.7 -3.4,-2.7 -6.4,-0.3Z" style="fill:#c10000;fill-rule:nonzero;"/><path d="M214.652,400.124c23.634,49.044 78.717,92.756 120.057,112.465c-9.294,-15.982 -18.47,-30.529 -24.131,-47.809c-22.426,-16.112 -46.732,-33.681 -71.426,-79.542" style="fill:#fff02b;"/><path d="M677.408,385.238l24.094,13.546c-23.342,51.096 -76.631,90.976 -117.595,113.805c9.294,-15.982 18.366,-32.917 24.026,-50.197c22.426,-16.112 44.781,-31.293 69.475,-77.154Z" style="fill:#fff02b;"/></g></g></svg>